# xmcd
#
# Track frame offsets:
#	182
#	7507
#	14577
#	21627
#	29062
#	37030
#	44217
#	52340
#	60122
#	67852
#	74777
#	82427
#	89762
#	96932
#	104067
#	112067
#	118875
#	126495
#	133367
#	141185
#	148325
#	156190
#	163750
#	171447
#
# Disc length: 2389 seconds
#
# Revision: 1
# Processed by: cddbd v1.4PL0 Copyright (c) Steve Scherf et al.
# Submitted via: audiograbber 1.81.02
#
DISCID=8d095318
DTITLE=Country All Star Team - Country Love Songs
DYEAR=1900
DGENRE=Country
TTITLE0=Red River Valley
TTITLE1=Stand By Your Man
TTITLE2=500 Miles Away From Home
TTITLE3=Some Broken Hearts Never Mind
TTITLE4=Please Release Me
TTITLE5=Detroit City
TTITLE6=Michael Row The Boat Ashore
TTITLE7=Blue Bayou
TTITLE8=Wasted Days And Wasted Nights
TTITLE9=Take These Chains From My Heart
TTITLE10=Down In The Valley
TTITLE11=Ruby
TTITLE12=Streets Of Lorado
TTITLE13=Crying In The Rain
TTITLE14=Lucille
TTITLE15=Help Ma Make It Trough The Night
TTITLE16=Banks Of Ohio
TTITLE17=Green, Green Grass Of Home
TTITLE18=Wandering Star
TTITLE19=Always On My Mind
TTITLE20=Amada
TTITLE21=Country Roads
TTITLE22=Tom Dooley
TTITLE23=Home On The Range
EXTD=
EXTT0=
EXTT1=
EXTT2=
EXTT3=
EXTT4=
EXTT5=
EXTT6=
EXTT7=
EXTT8=
EXTT9=
EXTT10=
EXTT11=
EXTT12=
EXTT13=
EXTT14=
EXTT15=
EXTT16=
EXTT17=
EXTT18=
EXTT19=
EXTT20=
EXTT21=
EXTT22=
EXTT23=
PLAYORDER=
